<svg xmlns="http://www.w3.org/2000/svg" width="8.49" height="14.292" viewBox="0 0 8.49 14.292">
  <g id="Сгруппировать_9318" data-name="Сгруппировать 9318" transform="translate(-3533.349 -185.975)">
    <path id="Контур_7278" data-name="Контур 7278" d="M3539.5,197a.65.65,0,0,1-.65-.65v-9.728a.65.65,0,1,1,1.3,0v9.728A.65.65,0,0,1,3539.5,197Z" transform="translate(-1.905)" fill="#010043"/>
    <path id="Контур_7279" data-name="Контур 7279" d="M3537.559,201.791l-3.96-3.96a.65.65,0,0,1,.919-.919l3.04,3.04,3.04-3.04a.65.65,0,0,1,.919.919Z" transform="translate(0.036 -3.722)" fill="#010043"/>
    <path id="Контур_7280" data-name="Контур 7280" d="M3541.336,206.912h-7.19a.65.65,0,0,1,0-1.3h7.19a.65.65,0,0,1,0,1.3Z" transform="translate(-0.146 -6.646)" fill="#010043"/>
  </g>
</svg>
