<svg xmlns="http://www.w3.org/2000/svg" width="18.598" height="16.637" viewBox="0 0 18.598 16.637">
  <g id="earnings" transform="translate(0 -26.992)">
    <path id="Контур_10093" data-name="Контур 10093" d="M16.014,268.208l-2.371,1.751a2.713,2.713,0,0,1-.75.376,1.634,1.634,0,0,0-1.029-2.083L7.13,266.686a4.865,4.865,0,0,0-4.621.871H.545A.545.545,0,0,0,0,268.1v5.449a.545.545,0,0,0,.545.545H2.724a.545.545,0,0,0,.545-.545v-.407l4.274.971a10.546,10.546,0,0,0,2.317.272h.1a10.1,10.1,0,0,0,5.776-1.9l2.177-1.612a1.635,1.635,0,1,0-1.9-2.66Zm-13.835,4.8H1.09v-4.359H2.18Zm15.1-3.024L15.1,271.594a9.019,9.019,0,0,1-5.155,1.7,9.375,9.375,0,0,1-2.163-.244l-4.516-1.026v-3.686a3.812,3.812,0,0,1,3.517-.619l4.734,1.566a.545.545,0,0,1-.345,1.034h0l-3.339-1.1a.545.545,0,1,0-.341,1.035l3.359,1.108a3.826,3.826,0,0,0,3.423-.515l2.371-1.751a.545.545,0,1,1,.633.887Z" transform="translate(0 -230.757)"/>
    <path id="Контур_10094" data-name="Контур 10094" d="M332.963,87.532a3.27,3.27,0,0,0-.951-.278,2.588,2.588,0,0,1-.637-.168c-.073-.039-.073-.049-.073-.114,0-.039.063-.109.183-.169a.984.984,0,0,1,.935.027.545.545,0,1,0,.654-.872,1.732,1.732,0,0,0-.618-.288v-.133a.545.545,0,1,0-1.09,0v.15a2.05,2.05,0,0,0-.369.141,1.286,1.286,0,0,0-.785,1.144,1.159,1.159,0,0,0,.649,1.075,3.269,3.269,0,0,0,.951.278,2.589,2.589,0,0,1,.637.168c.073.039.073.049.073.114,0,.037-.064.109-.184.169a.983.983,0,0,1-.934-.027.545.545,0,0,0-.654.872,1.732,1.732,0,0,0,.618.287v.134a.545.545,0,1,0,1.09,0v-.151a2.049,2.049,0,0,0,.368-.141,1.287,1.287,0,0,0,.786-1.144A1.16,1.16,0,0,0,332.963,87.532Z" transform="translate(-318.218 -55.894)"/>
    <path id="Контур_10095" data-name="Контур 10095" d="M246.9,36.8a4.9,4.9,0,1,0-4.9-4.9A4.909,4.909,0,0,0,246.9,36.8Zm0-8.718A3.814,3.814,0,1,1,243.09,31.9,3.818,3.818,0,0,1,246.9,28.082Z" transform="translate(-233.209)"/>
  </g>
</svg>
