<svg xmlns="http://www.w3.org/2000/svg" width="33.028" height="43.112" viewBox="0 0 33.028 43.112">
  <g id="g458" transform="translate(-11.11)">
    <path id="path511" d="M41.465,67.352H13.783a2.673,2.673,0,0,1-2.673-2.673V47.048a2.673,2.673,0,0,1,2.673-2.668H41.465a2.673,2.673,0,0,1,2.673,2.668v17.63A2.673,2.673,0,0,1,41.465,67.352Zm-27.682-20.7a.4.4,0,0,0-.4.4v17.63a.4.4,0,0,0,.4.4H41.465a.4.4,0,0,0,.4-.4V47.048a.4.4,0,0,0-.4-.4Z" transform="translate(0 -24.24)" fill="#010043"/>
    <path id="path513" d="M20.73,21.275V12.148a12.148,12.148,0,0,1,24.3,0,1.135,1.135,0,1,1-2.269,0,9.879,9.879,0,0,0-19.759,0v9.126Z" transform="translate(-5.254)" fill="#010043"/>
    <path id="path515" d="M42.77,64.651a3.925,3.925,0,1,1,3.921-3.921,3.925,3.925,0,0,1-3.921,3.921Zm0-5.577a1.656,1.656,0,1,0,1.652,1.656,1.656,1.656,0,0,0-1.652-1.656Z" transform="translate(-15.146 -31.024)" fill="#010043"/>
    <path id="path517" d="M46.135,76.574A1.135,1.135,0,0,1,45,75.439V71.6h2.269v3.839A1.135,1.135,0,0,1,46.135,76.574Z" transform="translate(-18.51 -39.107)" fill="#010043"/>
  </g>
</svg>
