<svg xmlns="http://www.w3.org/2000/svg" width="15.135" height="15.119" viewBox="0 0 15.135 15.119">
  <g id="move-2" transform="translate(0 -0.26)">
    <g id="Сгруппировать_9381" data-name="Сгруппировать 9381" transform="translate(0 0.26)">
      <path id="Контур_7293" data-name="Контур 7293" d="M15.011,7.545,13.2,5.735a.437.437,0,0,0-.6,0l-.229.229a.422.422,0,0,0,0,.6l.673.669H8.158V2.356l.671.681a.431.431,0,0,0,.6,0l.226-.229a.427.427,0,0,0,0-.6L7.839.389a.429.429,0,0,0-.3-.129H7.525a.427.427,0,0,0-.3.129L5.45,2.166a.429.429,0,0,0,0,.6L5.678,3a.446.446,0,0,0,.61,0l.688-.681V7.231H2.086l.681-.677a.423.423,0,0,0,0-.6l-.229-.228a.437.437,0,0,0-.6,0L.124,7.538a.443.443,0,0,0,0,.615L1.9,9.928a.437.437,0,0,0,.6,0L2.73,9.7a.428.428,0,0,0,0-.6l-.681-.682H6.976v4.923l-.718-.71a.441.441,0,0,0-.606,0l-.231.229a.426.426,0,0,0,0,.6l1.8,1.8a.425.425,0,0,0,.3.124h.008a.423.423,0,0,0,.3-.124l1.81-1.81a.427.427,0,0,0,0-.6l-.229-.229a.425.425,0,0,0-.593,0l-.663.673V8.413h4.934l-.71.712a.428.428,0,0,0,0,.6l.229.229a.437.437,0,0,0,.6,0l1.8-1.8a.443.443,0,0,0,0-.614Z" transform="translate(0 -0.26)" fill="#6a6a6a"/>
    </g>
  </g>
</svg>
