<svg xmlns="http://www.w3.org/2000/svg" width="14.901" height="16.605" viewBox="0 0 14.901 16.605">
  <g id="profits" transform="translate(-31 -2.143)">
    <path id="Контур_10096" data-name="Контур 10096" d="M301.72,302.315a2.982,2.982,0,0,0-.867-.253,2.361,2.361,0,0,1-.58-.153c-.066-.035-.066-.044-.066-.1,0-.035.057-.1.167-.154a.9.9,0,0,1,.853.025.5.5,0,0,0,.6-.795,1.579,1.579,0,0,0-.563-.262V300.5a.5.5,0,1,0-.993,0v.136a1.87,1.87,0,0,0-.337.129,1.173,1.173,0,0,0-.716,1.043,1.057,1.057,0,0,0,.592.98,2.98,2.98,0,0,0,.867.253,2.361,2.361,0,0,1,.58.153c.066.035.066.044.066.1,0,.034-.059.1-.168.154a.9.9,0,0,1-.852-.025.5.5,0,1,0-.6.795,1.579,1.579,0,0,0,.563.262v.122a.5.5,0,0,0,.993,0v-.137a1.867,1.867,0,0,0,.336-.128,1.173,1.173,0,0,0,.717-1.043A1.057,1.057,0,0,0,301.72,302.315Z" transform="translate(-259.332 -293.949)"/>
    <path id="Контур_10097" data-name="Контур 10097" d="M31.5,190.941h.5v1.49a.5.5,0,0,0,.5.5h8.941a4.47,4.47,0,0,0,.5-8.913V182.5a.5.5,0,0,0-.5-.5H33.484a.5.5,0,0,0-.5.5v1.49H31.5a.5.5,0,0,0-.5.5v1.987a.5.5,0,0,0,.5.5h.5v.993h-.5a.5.5,0,0,0-.5.5v1.987A.5.5,0,0,0,31.5,190.941Zm1.49.993v-.993h4.729a4.508,4.508,0,0,0,.909.993Zm0-3.974v-.994h4.229a4.443,4.443,0,0,0-.228.994Zm11.921.5a3.477,3.477,0,1,1-3.477-3.477A3.481,3.481,0,0,1,44.908,188.457ZM33.98,182.993h6.954v.993H33.98Zm-1.987,1.986h6.631a4.509,4.509,0,0,0-.909.994H31.993Zm0,3.974h4.995a4.436,4.436,0,0,0,.228.993H31.993Z" transform="translate(0 -179.857)"/>
    <path id="Контур_10098" data-name="Контур 10098" d="M.5,2.98h.5V4.537a.5.5,0,0,0,.5.5H3.477a.5.5,0,0,0,.5-.5V2.98h.5a.5.5,0,0,0,.351-.848L2.835.145a.5.5,0,0,0-.7,0L.145,2.132A.5.5,0,0,0,.5,2.98ZM2.484,1.2l.819.819a.5.5,0,0,0-.322.465V4.04H1.987V2.484a.5.5,0,0,0-.322-.465Z" transform="translate(40.934 18.748) rotate(180)"/>
  </g>
</svg>
