<svg width="24" height="18" viewBox="0 0 24 18" fill="none" xmlns="http://www.w3.org/2000/svg">
<path d="M22.5515 17.9297H1.44839C0.648469 17.9297 0 17.2812 0 16.4813V1.5187C4.6875e-05 0.718781 0.648516 0.0703125 1.44839 0.0703125H22.5515C23.3514 0.0703125 23.9999 0.718781 23.9999 1.5187V16.4813C23.9999 17.2812 23.3514 17.9297 22.5515 17.9297Z" fill="#FAFAFA"/>
<path d="M2.89648 17.9299L22.7498 3.18701V17.9299H2.89648Z" fill="#F5F5F5"/>
<path d="M2.89739 17.9297H1.44839C0.648469 17.9297 0 17.2812 0 16.4813V1.5187C4.6875e-05 0.718781 0.648516 0.0703125 1.44839 0.0703125H2.89739V17.9297Z" fill="#F44336"/>
<path d="M1.44922 0.0703125H2.89789V17.9297H1.44922V0.0703125Z" fill="#E53935"/>
<path d="M21.1035 17.9297H22.5525C23.3524 17.9297 24.0009 17.2812 24.0009 16.4813V1.5187C24.0009 0.718781 23.3524 0.0703125 22.5525 0.0703125H21.1035V17.9297Z" fill="#F44336"/>
<path d="M22.5522 0.0703125H21.1035C21.9036 0.0703125 22.5522 0.718641 22.5522 1.51837V16.4816C22.5522 17.2814 21.9036 17.9297 21.1035 17.9297H22.5522C23.3523 17.9297 24.0009 17.2814 24.0009 16.4816V1.51837C24.0009 0.718641 23.3522 0.0703125 22.5522 0.0703125Z" fill="#E53935"/>
<path d="M1.44922 0.0703125H22.5517V1.51969L12.0005 9.3713L1.44922 1.1768V0.0703125Z" fill="#FAFAFA"/>
<path d="M23.7132 0.654753C23.2355 0.0132205 22.3279 -0.11967 21.6861 0.35794L12 7.56582L2.31384 0.35794C1.67207 -0.11967 0.764526 0.0132673 0.286729 0.654753C-0.191021 1.29624 -0.0580837 2.20341 0.583682 2.68102L11.1349 10.5326C11.3916 10.7237 11.6958 10.8191 12 10.8191C12.3042 10.8191 12.6084 10.7237 12.8651 10.5326L23.4164 2.68097C24.0581 2.20341 24.191 1.29624 23.7132 0.654753Z" fill="#F44336"/>
<path d="M23.713 0.654974C23.2693 0.0591938 22.455 -0.097556 21.827 0.265678C21.9929 0.361397 22.1426 0.491615 22.2643 0.654974C22.7421 1.29646 22.6092 2.20363 21.9674 2.68124L11.4162 10.5328C11.3708 10.5665 11.3235 10.5963 11.2754 10.6241C11.4993 10.7535 11.7493 10.8193 11.9997 10.8193C12.3039 10.8193 12.6081 10.7239 12.8648 10.5328L23.4161 2.68119C24.0578 2.20363 24.1908 1.29646 23.713 0.654974Z" fill="#E53935"/>
</svg>
